<?xml version="1.0" standalone="no"?>
<!DOCTYPE svg PUBLIC "-//W3C//DTD SVG 20010904//EN"
 "http://www.w3.org/TR/2001/REC-SVG-20010904/DTD/svg10.dtd">
<svg version="1.0" xmlns="http://www.w3.org/2000/svg"
 width="700.000000pt" height="700.000000pt" viewBox="0 0 700.000000 700.000000"
 preserveAspectRatio="xMidYMid meet">
<metadata>
Created by potrace 1.11, written by Peter Selinger 2001-2013
</metadata>
<g transform="translate(0.000000,700.000000) scale(0.100000,-0.100000)"
fill="#000000" stroke="none">
<path d="M399 6408 c-1 -2 -3 -369 -3 -815 l-2 -813 153 0 153 0 0 406 c0 463
-4 440 89 487 39 19 63 24 113 23 99 -3 150 -39 168 -120 4 -21 8 -208 7 -417
l-2 -379 155 0 156 0 -2 408 c0 224 -4 423 -9 442 -5 19 -9 40 -9 45 -2 23
-30 92 -49 120 -57 84 -125 128 -223 143 -143 23 -275 -14 -355 -100 -14 -15
-29 -28 -32 -28 -4 0 -7 135 -7 299 l0 299 -150 1 c-82 1 -151 0 -151 -1z"/>
<path d="M5530 5595 l0 -815 154 0 154 0 -1 172 0 172 48 53 c26 29 52 53 59
53 6 0 76 -101 155 -225 l143 -225 175 0 175 0 -19 30 c-10 17 -109 165 -220
330 -112 164 -203 302 -203 305 0 9 21 35 90 115 30 35 75 86 99 114 24 28 55
65 70 81 117 135 141 163 141 167 0 3 -81 5 -181 4 l-180 -1 -27 -32 c-258
-305 -316 -372 -320 -368 -3 2 -5 203 -5 444 l1 440 -154 0 -154 1 0 -815z"/>
<path d="M5005 6369 c-88 -27 -130 -129 -88 -216 50 -106 223 -118 296 -21 29
39 34 123 9 168 -36 65 -131 95 -217 69z"/>
<path d="M2042 5934 c-70 -15 -180 -69 -227 -112 -81 -75 -142 -186 -169 -308
-22 -104 -16 -311 12 -388 55 -150 144 -251 276 -312 157 -72 388 -69 538 7
49 25 140 95 157 122 15 23 7 36 -76 127 l-59 64 -35 -35 c-84 -86 -245 -117
-359 -68 -65 28 -125 95 -145 162 -8 28 -13 53 -10 55 3 3 166 6 363 6 l357 1
1 110 c2 364 -167 568 -479 579 -45 2 -110 -3 -145 -10z m218 -255 c66 -33 96
-80 106 -169 l5 -47 -214 0 -214 0 8 37 c30 135 105 202 219 199 30 -1 71 -10
90 -20z"/>
<path d="M3375 5935 c-22 -6 -51 -17 -65 -25 -27 -13 -100 -89 -100 -102 0 -4
-4 -8 -8 -8 -5 0 -10 26 -11 57 -1 31 -4 59 -7 62 -3 4 -68 6 -145 7 l-139 0
-1 -25 c-1 -36 -1 -1070 0 -1099 l1 -23 153 3 152 3 0 375 c0 372 0 375 22
406 39 55 103 77 218 77 l100 0 0 143 c0 78 -3 145 -7 149 -12 12 -122 13
-163 0z"/>
<path d="M3720 5804 l0 -124 260 -2 259 -3 -170 -225 c-94 -124 -214 -283
-267 -353 l-97 -128 0 -95 -1 -94 476 2 475 3 1 110 c0 61 -1 115 -3 121 -3 8
-84 12 -275 13 -149 0 -272 2 -274 4 -2 1 96 133 217 292 121 160 242 321 269
358 l49 69 -2 86 -2 87 -457 1 -458 1 0 -123z"/>
<path d="M4919 5925 c-1 0 -1 -1106 0 -1128 1 -16 13 -17 153 -15 l153 3 1
560 c0 308 -1 565 -4 571 -2 8 -50 11 -153 11 -82 -1 -149 -1 -150 -2z"/>
<path d="M445 4150 l-28 -5 0 -800 c1 -440 2 -805 2 -810 1 -7 57 -10 153 -10
l153 0 0 809 c0 489 -4 810 -9 814 -12 7 -232 9 -271 2z"/>
<path d="M2260 4152 c-7 -2 -10 -292 -10 -816 l0 -812 130 1 c71 0 134 5 139
10 5 6 11 29 14 53 2 23 7 45 9 47 3 3 16 -8 31 -24 54 -61 143 -99 247 -105
125 -7 231 33 311 116 81 84 121 184 145 358 12 81 2 248 -21 360 -24 117
-128 261 -221 307 -139 69 -335 51 -439 -41 -16 -14 -32 -26 -35 -26 -3 0 -5
128 -5 285 l0 284 -143 3 c-78 2 -147 2 -152 0z m636 -768 c39 -38 49 -59 71
-144 7 -25 6 -232 -1 -284 -7 -50 -36 -117 -65 -150 -28 -31 -73 -49 -136 -51
-63 -3 -108 10 -152 45 -57 44 -59 56 -57 298 1 122 2 226 3 231 2 18 54 72
84 88 43 22 124 31 171 19 25 -6 56 -25 82 -52z"/>
<path d="M1340 3674 c-169 -44 -275 -133 -314 -264 -27 -91 -36 -85 136 -84
l152 0 9 35 c16 63 70 101 146 102 94 0 139 -24 167 -90 15 -34 19 -142 7
-144 -5 0 -62 -2 -128 -4 -264 -8 -429 -81 -493 -219 -46 -97 -46 -219 1 -311
34 -68 143 -156 212 -172 167 -38 302 -12 397 75 15 14 29 24 31 21 1 -2 9
-24 17 -49 l15 -45 145 -1 c80 0 150 1 156 3 7 3 5 22 -7 57 -25 72 -28 117
-30 469 -2 314 -6 353 -49 437 -43 84 -149 158 -266 185 -75 17 -234 17 -304
-1z m310 -731 l0 -102 -36 -35 c-76 -74 -229 -89 -284 -28 -30 34 -42 69 -36
108 3 22 5 42 6 46 0 15 54 70 83 84 38 20 101 30 195 30 l72 0 0 -103z"/>
<path d="M4728 2236 c-2 -11 -3 -141 -3 -288 1 -148 -2 -268 -5 -268 -4 0 -19
13 -34 29 -47 49 -137 83 -225 86 -204 6 -350 -106 -424 -327 -25 -73 -32
-133 -30 -278 2 -197 41 -330 130 -438 138 -168 407 -189 562 -43 43 41 51 38
51 -22 0 -56 4 -58 150 -55 l133 3 0 810 1 810 -151 1 c-147 2 -151 1 -155
-20z m-97 -712 c33 -17 37 -20 74 -63 19 -22 20 -38 21 -250 1 -239 -1 -256
-48 -297 -46 -42 -86 -56 -158 -55 -106 3 -180 80 -205 216 -6 34 -6 195 -1
238 16 110 77 205 148 226 45 13 129 6 169 -15z"/>
<path d="M2045 1785 c-293 -63 -435 -323 -390 -716 13 -119 68 -235 149 -319
189 -194 581 -183 749 22 48 59 85 141 91 204 l5 51 -142 -1 -141 -1 -9 -35
c-13 -52 -45 -90 -92 -111 -128 -57 -252 -3 -291 126 -14 46 -19 93 -19 195 0
149 13 213 54 272 35 50 72 69 141 75 47 5 67 1 103 -16 52 -25 94 -82 103
-140 l7 -41 144 0 145 0 -7 48 c-18 138 -66 226 -170 311 -27 22 -111 60 -146
66 -18 3 -36 8 -40 11 -19 11 -188 11 -244 -1z"/>
<path d="M3189 1784 c-169 -32 -302 -147 -325 -280 -18 -100 15 -209 79 -267
54 -49 172 -109 238 -122 58 -12 192 -51 234 -70 64 -28 79 -47 79 -100 1 -72
-52 -112 -154 -117 -105 -4 -171 25 -209 92 -12 22 -20 40 -16 40 3 0 1 8 -4
18 -8 15 -25 17 -140 16 -72 -1 -136 -2 -142 -3 -18 -2 -1 -88 28 -144 31 -62
103 -134 168 -169 91 -48 184 -68 309 -64 61 2 124 6 139 10 151 36 270 129
307 240 11 36 16 141 7 176 -34 137 -168 227 -407 275 -116 23 -201 62 -218
100 -36 78 18 148 125 161 97 11 171 -29 195 -107 l11 -39 149 0 148 0 0 26
c0 39 -21 104 -46 145 -51 83 -157 154 -269 179 -72 17 -209 19 -286 4z"/>
<path d="M416 1360 c1 -356 3 -424 18 -480 49 -189 185 -282 391 -267 101 7
177 35 235 86 25 22 46 38 48 36 2 -2 5 -23 7 -47 1 -23 3 -46 4 -50 0 -5 65
-8 144 -8 l144 0 -1 573 -1 572 -152 0 -153 1 0 -406 0 -405 -30 -37 c-36 -43
-102 -68 -182 -69 -65 -1 -107 18 -140 63 l-23 33 -2 405 c-1 223 -2 407 -3
410 0 3 -69 6 -153 6 l-153 0 2 -416z"/>
</g>
</svg>
