<?xml version="1.0" encoding="utf-8"?>
<!-- Generator: Adobe Illustrator 23.0.2, SVG Export Plug-In . SVG Version: 6.00 Build 0)  -->
<svg version="1.1" id="Layer_1" xmlns="http://www.w3.org/2000/svg" xmlns:xlink="http://www.w3.org/1999/xlink" x="0px" y="0px"
	 viewBox="0 0 75 75" style="enable-background:new 0 0 75 75;" xml:space="preserve">
<style type="text/css">
	.st0{fill:#1A1A1A;}
	.st1{fill:#FFCD00;}
</style>
<g>
	<path class="st0" d="M7.79,12.94c0.88-1.05,1.98-1.58,3.31-1.58c2.69,0,4.05,1.56,4.09,4.68v7.94h-3.31v-7.85
		c0-0.71-0.15-1.24-0.46-1.58c-0.31-0.34-0.81-0.51-1.52-0.51c-0.97,0-1.67,0.37-2.11,1.12v8.81H4.48V6.39h3.31V12.94z"/>
	<path class="st0" d="M23.98,24.22c-1.82,0-3.3-0.56-4.44-1.67c-1.14-1.11-1.71-2.6-1.71-4.46v-0.32c0-1.24,0.24-2.36,0.72-3.34
		s1.16-1.74,2.04-2.27c0.88-0.53,1.89-0.8,3.02-0.8c1.7,0,3.03,0.53,4,1.6s1.46,2.58,1.46,4.55v1.35h-7.89
		c0.11,0.81,0.43,1.46,0.97,1.95c0.54,0.49,1.22,0.73,2.04,0.73c1.28,0,2.27-0.46,2.99-1.39l1.63,1.82c-0.5,0.7-1.17,1.25-2.02,1.64
		C25.95,24.02,25.01,24.22,23.98,24.22z M23.6,14.03c-0.66,0-1.19,0.22-1.6,0.67c-0.41,0.45-0.67,1.08-0.78,1.91h4.6v-0.26
		c-0.02-0.74-0.21-1.31-0.6-1.71C24.84,14.23,24.3,14.03,23.6,14.03z"/>
	<path class="st0" d="M38.5,14.7c-0.45-0.06-0.85-0.09-1.19-0.09c-1.25,0-2.07,0.42-2.46,1.27v8.11h-3.31V11.59h3.13l0.09,1.48
		c0.66-1.14,1.58-1.71,2.76-1.71c0.37,0,0.71,0.05,1.03,0.15L38.5,14.7z"/>
	<path class="st0" d="M44.48,21.32h6.06v2.67H40.26v-2.02l5.83-7.71h-5.66v-2.67h9.93v1.95L44.48,21.32z"/>
	<path class="st0" d="M53.18,8.39c0-0.5,0.17-0.9,0.5-1.23c0.33-0.32,0.78-0.48,1.36-0.48c0.57,0,1.02,0.16,1.35,0.48
		c0.34,0.32,0.5,0.73,0.5,1.23c0,0.5-0.17,0.92-0.51,1.24c-0.34,0.32-0.79,0.48-1.35,0.48c-0.56,0-1.01-0.16-1.35-0.48
		C53.35,9.3,53.18,8.89,53.18,8.39z M56.7,23.99h-3.32V11.59h3.32V23.99z"/>
	<path class="st0" d="M64.51,19.02l-1.19,1.19v3.78h-3.31V6.39h3.31v9.75l0.64-0.82l3.17-3.72h3.97l-4.48,5.17l4.87,7.23h-3.8
		L64.51,19.02z"/>
</g>
<g>
	<path class="st0" d="M8.05,48.37H4.73V30.77h3.32V48.37z"/>
	<path class="st0" d="M18.55,48.37c-0.15-0.3-0.26-0.67-0.33-1.11c-0.8,0.89-1.84,1.34-3.13,1.34c-1.21,0-2.22-0.35-3.02-1.05
		c-0.8-0.7-1.2-1.59-1.2-2.66c0-1.31,0.49-2.32,1.46-3.02s2.38-1.06,4.22-1.07h1.52v-0.71c0-0.57-0.15-1.03-0.44-1.37
		c-0.29-0.34-0.76-0.52-1.39-0.52c-0.56,0-0.99,0.13-1.31,0.4s-0.48,0.63-0.48,1.1h-3.31c0-0.72,0.22-1.38,0.66-1.99
		c0.44-0.61,1.07-1.09,1.88-1.44c0.81-0.35,1.72-0.52,2.73-0.52c1.53,0,2.74,0.38,3.64,1.15c0.9,0.77,1.35,1.85,1.35,3.24v5.37
		c0.01,1.18,0.17,2.07,0.49,2.67v0.19H18.55z M15.81,46.07c0.49,0,0.94-0.11,1.35-0.33c0.41-0.22,0.72-0.51,0.92-0.88v-2.13h-1.24
		c-1.66,0-2.54,0.57-2.65,1.72l-0.01,0.19c0,0.41,0.15,0.75,0.44,1.02S15.31,46.07,15.81,46.07z"/>
	<path class="st0" d="M35.7,42.29c0,1.99-0.42,3.53-1.27,4.64s-2.03,1.67-3.55,1.67c-1.34,0-2.42-0.52-3.22-1.55l-0.15,1.32h-2.98
		V30.77h3.31v6.31c0.76-0.89,1.77-1.34,3.01-1.34c1.51,0,2.7,0.56,3.56,1.67c0.86,1.11,1.29,2.67,1.29,4.69V42.29z M32.39,42.05
		c0-1.25-0.2-2.17-0.6-2.74s-0.99-0.86-1.78-0.86c-1.05,0-1.78,0.43-2.18,1.29v4.89c0.4,0.87,1.14,1.31,2.2,1.31
		c1.07,0,1.77-0.53,2.11-1.58C32.31,43.84,32.39,43.08,32.39,42.05z"/>
</g>
<g>
	<path class="st1" d="M12.22,67.59c-0.82,0.99-1.95,1.49-3.39,1.49c-1.33,0-2.34-0.38-3.04-1.15c-0.7-0.76-1.06-1.88-1.07-3.36
		v-8.12h3.31v8.02c0,1.29,0.59,1.94,1.76,1.94c1.12,0,1.89-0.39,2.31-1.17v-8.78h3.32v12.39h-3.12L12.22,67.59z"/>
	<path class="st1" d="M23.66,66.41c0.61,0,1.11-0.17,1.49-0.5c0.38-0.34,0.58-0.78,0.6-1.34h3.1c-0.01,0.84-0.24,1.61-0.69,2.31
		c-0.45,0.7-1.07,1.24-1.85,1.63c-0.78,0.39-1.65,0.58-2.59,0.58c-1.77,0-3.17-0.56-4.19-1.69s-1.53-2.68-1.53-4.67V62.5
		c0-1.91,0.51-3.43,1.52-4.57c1.02-1.14,2.41-1.71,4.18-1.71c1.55,0,2.79,0.44,3.73,1.32c0.94,0.88,1.41,2.06,1.43,3.52h-3.1
		c-0.02-0.65-0.21-1.17-0.6-1.57c-0.38-0.4-0.89-0.61-1.51-0.61c-0.77,0-1.35,0.28-1.75,0.84c-0.39,0.56-0.59,1.47-0.59,2.74v0.34
		c0,1.28,0.19,2.2,0.58,2.75C22.28,66.13,22.87,66.41,23.66,66.41z"/>
	<path class="st1" d="M38.04,65.42c0-0.4-0.2-0.72-0.6-0.96c-0.4-0.23-1.04-0.44-1.93-0.62c-2.95-0.62-4.42-1.87-4.42-3.76
		c0-1.1,0.46-2.02,1.37-2.75c0.91-0.74,2.11-1.11,3.58-1.11c1.57,0,2.83,0.37,3.77,1.11c0.94,0.74,1.41,1.7,1.41,2.89h-3.31
		c0-0.47-0.15-0.86-0.46-1.17c-0.31-0.31-0.78-0.46-1.43-0.46c-0.56,0-0.99,0.13-1.29,0.38c-0.31,0.25-0.46,0.57-0.46,0.96
		c0,0.37,0.17,0.66,0.52,0.89c0.35,0.23,0.93,0.42,1.76,0.58c0.82,0.16,1.52,0.35,2.08,0.56c1.75,0.64,2.62,1.75,2.62,3.33
		c0,1.13-0.48,2.04-1.45,2.74c-0.97,0.7-2.22,1.05-3.76,1.05c-1.04,0-1.96-0.19-2.77-0.56c-0.81-0.37-1.44-0.88-1.9-1.52
		c-0.46-0.65-0.69-1.34-0.69-2.09h3.14c0.03,0.59,0.25,1.04,0.65,1.35s0.95,0.47,1.63,0.47c0.63,0,1.11-0.12,1.44-0.36
		C37.88,66.13,38.04,65.81,38.04,65.42z"/>
	<path class="st1" d="M43.46,62.56c0-1.93,0.43-3.47,1.3-4.62c0.87-1.15,2.05-1.72,3.56-1.72c1.21,0,2.2,0.45,2.99,1.35v-6.32h3.32
		v17.59h-2.99l-0.16-1.32c-0.82,1.03-1.89,1.55-3.18,1.55c-1.46,0-2.63-0.57-3.51-1.72C43.9,66.2,43.46,64.61,43.46,62.56z
		 M46.77,62.81c0,1.16,0.2,2.05,0.61,2.67c0.4,0.62,0.99,0.93,1.76,0.93c1.02,0,1.74-0.43,2.16-1.3v-4.9
		c-0.41-0.86-1.13-1.3-2.14-1.3C47.57,58.92,46.77,60.21,46.77,62.81z"/>
</g>
</svg>
