<?xml version="1.0" encoding="utf-8"?>
<!-- Generator: Adobe Illustrator 23.0.2, SVG Export Plug-In . SVG Version: 6.00 Build 0)  -->
<svg version="1.1" id="Layer_1" xmlns="http://www.w3.org/2000/svg" xmlns:xlink="http://www.w3.org/1999/xlink" x="0px" y="0px"
	 viewBox="0 0 50 50" style="enable-background:new 0 0 50 50;" xml:space="preserve">
<style type="text/css">
	.st0{fill:#1A1A1A;}
	.st1{fill:#FFCD00;}
</style>
<g>
	<path class="st0" d="M7.91,10.45c0.51-0.61,1.15-0.92,1.93-0.92c1.57,0,2.36,0.91,2.38,2.73v4.62h-1.93v-4.57
		c0-0.41-0.09-0.72-0.27-0.92s-0.47-0.3-0.89-0.3c-0.56,0-0.97,0.22-1.23,0.65v5.13H5.98V6.63h1.93V10.45z"/>
	<path class="st0" d="M17.33,17.01c-1.06,0-1.92-0.32-2.58-0.97c-0.66-0.65-1-1.51-1-2.59v-0.19c0-0.72,0.14-1.37,0.42-1.94
		c0.28-0.57,0.68-1.01,1.19-1.32c0.51-0.31,1.1-0.46,1.76-0.46c0.99,0,1.76,0.31,2.33,0.93c0.57,0.62,0.85,1.51,0.85,2.65v0.79h-4.6
		c0.06,0.47,0.25,0.85,0.56,1.13c0.31,0.28,0.71,0.43,1.19,0.43c0.74,0,1.32-0.27,1.74-0.81l0.95,1.06
		c-0.29,0.41-0.68,0.73-1.17,0.96C18.48,16.9,17.93,17.01,17.33,17.01z M17.11,11.08c-0.38,0-0.69,0.13-0.93,0.39
		c-0.24,0.26-0.39,0.63-0.46,1.11h2.68v-0.15c-0.01-0.43-0.12-0.76-0.35-0.99C17.84,11.2,17.52,11.08,17.11,11.08z"/>
	<path class="st0" d="M25.79,11.47c-0.26-0.04-0.49-0.05-0.69-0.05c-0.73,0-1.21,0.25-1.43,0.74v4.72h-1.93V9.66h1.82l0.05,0.86
		c0.39-0.66,0.92-0.99,1.61-0.99c0.21,0,0.41,0.03,0.6,0.09L25.79,11.47z"/>
	<path class="st0" d="M29.27,15.32h3.53v1.55h-5.99V15.7l3.39-4.49h-3.29V9.66h5.78v1.14L29.27,15.32z"/>
	<path class="st0" d="M34.33,7.79c0-0.29,0.1-0.53,0.29-0.71c0.19-0.19,0.46-0.28,0.79-0.28c0.33,0,0.59,0.09,0.79,0.28
		c0.2,0.19,0.29,0.42,0.29,0.71c0,0.29-0.1,0.53-0.3,0.72s-0.46,0.28-0.78,0.28s-0.59-0.09-0.78-0.28
		C34.43,8.33,34.33,8.09,34.33,7.79z M36.38,16.88h-1.93V9.66h1.93V16.88z"/>
	<path class="st0" d="M40.93,13.98l-0.69,0.69v2.2h-1.93V6.63h1.93v5.68l0.37-0.48l1.85-2.17h2.31l-2.61,3.01L45,16.88h-2.21
		L40.93,13.98z"/>
</g>
<g>
	<path class="st0" d="M8.06,31.07H6.12V20.83h1.93V31.07z"/>
	<path class="st0" d="M14.17,31.07c-0.09-0.17-0.15-0.39-0.19-0.65c-0.47,0.52-1.07,0.78-1.82,0.78c-0.71,0-1.29-0.2-1.76-0.61
		s-0.7-0.92-0.7-1.55c0-0.76,0.28-1.35,0.85-1.76c0.57-0.41,1.39-0.62,2.46-0.62h0.89v-0.41c0-0.33-0.09-0.6-0.26-0.8
		s-0.44-0.3-0.81-0.3c-0.32,0-0.58,0.08-0.76,0.23c-0.18,0.16-0.28,0.37-0.28,0.64H9.86c0-0.42,0.13-0.8,0.39-1.16
		c0.26-0.36,0.62-0.63,1.09-0.84c0.47-0.2,1-0.3,1.59-0.3c0.89,0,1.6,0.22,2.12,0.67c0.52,0.45,0.78,1.07,0.78,1.88v3.13
		c0,0.68,0.1,1.2,0.29,1.55v0.11H14.17z M12.58,29.73c0.28,0,0.55-0.06,0.79-0.19c0.24-0.13,0.42-0.3,0.53-0.51v-1.24h-0.72
		c-0.96,0-1.48,0.33-1.54,1l-0.01,0.11c0,0.24,0.08,0.44,0.25,0.59C12.05,29.65,12.28,29.73,12.58,29.73z"/>
	<path class="st0" d="M24.15,27.53c0,1.16-0.25,2.06-0.74,2.7c-0.49,0.65-1.18,0.97-2.07,0.97c-0.78,0-1.41-0.3-1.87-0.9l-0.09,0.77
		h-1.73V20.83h1.93v3.67c0.44-0.52,1.03-0.78,1.75-0.78c0.88,0,1.57,0.32,2.07,0.97c0.5,0.65,0.75,1.56,0.75,2.73V27.53z
		 M22.23,27.39c0-0.73-0.12-1.26-0.35-1.6c-0.23-0.34-0.58-0.5-1.03-0.5c-0.61,0-1.04,0.25-1.27,0.75v2.85
		c0.24,0.51,0.66,0.76,1.28,0.76c0.62,0,1.03-0.31,1.23-0.92C22.18,28.44,22.23,27.99,22.23,27.39z"/>
</g>
<g>
	<path class="st1" d="M10.48,42.26c-0.48,0.58-1.13,0.87-1.97,0.87c-0.77,0-1.36-0.22-1.77-0.67c-0.41-0.44-0.61-1.1-0.62-1.95
		v-4.73h1.93v4.67c0,0.75,0.34,1.13,1.03,1.13c0.65,0,1.1-0.23,1.35-0.68v-5.11h1.93V43h-1.81L10.48,42.26z"/>
	<path class="st1" d="M17.15,41.58c0.36,0,0.64-0.1,0.87-0.29c0.22-0.2,0.34-0.46,0.35-0.78h1.81c0,0.49-0.14,0.94-0.4,1.34
		c-0.26,0.41-0.62,0.72-1.08,0.95c-0.46,0.22-0.96,0.34-1.51,0.34c-1.03,0-1.85-0.33-2.44-0.98s-0.89-1.56-0.89-2.72V39.3
		c0-1.11,0.3-2,0.89-2.66c0.59-0.66,1.4-0.99,2.43-0.99c0.9,0,1.63,0.26,2.17,0.77s0.82,1.2,0.83,2.05h-1.81
		c-0.01-0.38-0.12-0.68-0.35-0.91c-0.22-0.24-0.52-0.35-0.88-0.35c-0.45,0-0.79,0.16-1.02,0.49c-0.23,0.33-0.34,0.86-0.34,1.59v0.2
		c0,0.74,0.11,1.28,0.34,1.6C16.34,41.41,16.68,41.58,17.15,41.58z"/>
	<path class="st1" d="M25.52,41c0-0.24-0.12-0.42-0.35-0.56s-0.61-0.26-1.12-0.36c-1.72-0.36-2.57-1.09-2.57-2.19
		c0-0.64,0.27-1.17,0.8-1.6c0.53-0.43,1.23-0.64,2.08-0.64c0.92,0,1.65,0.22,2.2,0.65c0.55,0.43,0.82,0.99,0.82,1.68h-1.93
		c0-0.28-0.09-0.5-0.27-0.68c-0.18-0.18-0.46-0.27-0.83-0.27c-0.32,0-0.58,0.07-0.75,0.22c-0.18,0.15-0.27,0.33-0.27,0.56
		c0,0.21,0.1,0.39,0.3,0.52c0.2,0.13,0.54,0.24,1.02,0.34s0.88,0.2,1.21,0.32c1.02,0.37,1.53,1.02,1.53,1.94
		c0,0.66-0.28,1.19-0.85,1.6c-0.56,0.41-1.29,0.61-2.19,0.61c-0.6,0-1.14-0.11-1.61-0.32c-0.47-0.22-0.84-0.51-1.1-0.89
		c-0.27-0.38-0.4-0.78-0.4-1.22h1.83c0.02,0.34,0.14,0.6,0.38,0.79c0.24,0.18,0.55,0.27,0.95,0.27c0.37,0,0.65-0.07,0.84-0.21
		C25.42,41.41,25.52,41.23,25.52,41z"/>
	<path class="st1" d="M28.67,39.34c0-1.12,0.25-2.02,0.76-2.69s1.19-1,2.07-1c0.7,0,1.28,0.26,1.74,0.79v-3.68h1.93V43h-1.74
		l-0.09-0.77c-0.48,0.6-1.1,0.9-1.85,0.9c-0.85,0-1.53-0.33-2.04-1C28.93,41.46,28.67,40.53,28.67,39.34z M30.6,39.48
		c0,0.68,0.12,1.2,0.35,1.56c0.24,0.36,0.58,0.54,1.03,0.54c0.6,0,1.02-0.25,1.26-0.75v-2.85c-0.24-0.5-0.66-0.75-1.25-0.75
		C31.07,37.22,30.6,37.97,30.6,39.48z"/>
</g>
</svg>
